<?xml version="1.0" standalone="no"?>
<!DOCTYPE svg PUBLIC "-//W3C//DTD SVG 20010904//EN"
 "http://www.w3.org/TR/2001/REC-SVG-20010904/DTD/svg10.dtd">
<svg version="1.0" xmlns="http://www.w3.org/2000/svg"
 width="198.000000pt" height="198.000000pt" viewBox="0 0 198.000000 198.000000"
 preserveAspectRatio="xMidYMid meet">
<metadata>
Created by potrace 1.15, written by Peter Selinger 2001-2017
</metadata>
<g transform="translate(0.000000,198.000000) scale(0.100000,-0.100000)"
fill="#000000" stroke="none">
<path d="M0 985 l0 -975 990 0 990 0 0 975 0 975 -990 0 -990 0 0 -975z m618
787 c10 -10 46 -69 81 -132 35 -63 74 -131 86 -150 19 -31 111 -191 175 -305
12 -22 46 -80 75 -130 92 -157 110 -200 97 -229 l-12 -26 -539 0 c-538 0 -540
0 -551 21 -15 28 -6 60 40 138 21 36 47 82 58 101 11 19 36 64 57 100 21 36
56 99 80 140 23 41 59 104 80 140 21 36 55 94 75 130 20 36 54 94 74 130 53
92 85 111 124 72z m1300 2 c29 -20 28 -54 -4 -112 -15 -26 -46 -81 -69 -122
-60 -108 -86 -154 -145 -255 -29 -49 -81 -140 -115 -201 -35 -61 -75 -130 -89
-152 -14 -23 -26 -44 -26 -47 0 -3 -11 -24 -25 -46 -24 -37 -29 -40 -63 -37
-37 3 -38 5 -125 158 -49 85 -124 216 -167 290 -43 74 -90 158 -105 185 -15
28 -45 79 -65 115 -102 176 -108 196 -68 224 20 14 87 16 533 16 446 0 513 -2
533 -16z m-1067 -1153 c21 -16 24 -28 24 -81 0 -81 -20 -100 -106 -100 l-59 0
0 100 0 100 59 0 c43 0 65 -5 82 -19z m167 -43 c5 -7 12 -41 14 -75 l3 -62
-35 -1 c-98 -1 -100 -1 -100 41 0 32 27 49 75 49 18 0 23 4 19 15 -7 17 -49
20 -59 5 -8 -13 -35 -13 -35 -1 0 35 94 57 118 29z m231 3 c10 -6 16 -33 19
-75 l4 -65 -28 1 c-16 1 -38 -1 -50 -5 -14 -5 -29 -1 -45 12 -21 16 -22 22
-11 45 8 19 21 27 52 32 48 8 56 34 10 34 -16 0 -30 -4 -30 -10 0 -5 -7 -10
-15 -10 -21 0 -19 27 3 39 21 13 72 14 91 2z m-682 -354 c18 -45 35 -90 39
-99 4 -13 1 -18 -10 -18 -10 0 -22 13 -27 30 -10 27 -15 30 -53 30 -37 0 -43
-3 -53 -30 -6 -16 -18 -30 -27 -30 -9 0 -16 1 -16 3 0 6 61 160 70 178 22 40
44 22 77 -64z m322 24 c10 -6 16 -32 19 -75 l4 -65 -28 1 c-16 1 -39 -2 -50
-6 -14 -4 -29 0 -45 13 -21 16 -22 22 -11 45 8 19 21 27 52 32 48 8 56 34 10
34 -16 0 -30 -4 -30 -10 0 -5 -7 -10 -15 -10 -21 0 -19 27 3 39 21 13 72 14
91 2z"/>
<path d="M484 1583 c-42 -76 -86 -150 -96 -165 -10 -14 -18 -33 -18 -41 0 -9
-4 -17 -8 -19 -8 -3 -72 -104 -72 -113 0 -2 -29 -54 -65 -116 -36 -61 -65
-114 -65 -117 0 -3 -18 -33 -40 -67 -39 -59 -45 -95 -16 -95 631 -3 960 0 968
8 13 13 17 5 -255 477 -82 143 -164 287 -183 320 -51 94 -59 90 -150 -72z
m111 87 c-4 -6 11 -41 33 -78 110 -186 141 -242 134 -246 -5 -3 -33 15 -63 39
-30 24 -57 44 -61 45 -4 0 -22 -25 -39 -55 -17 -30 -37 -55 -44 -55 -8 0 -23
20 -34 45 -22 50 -26 52 -60 29 -37 -26 -47 -3 -18 43 13 21 39 68 57 103 33
66 68 120 85 132 14 11 17 10 10 -2z m-102 -449 c13 -5 37 -21 52 -35 l27 -25
-34 -21 c-38 -23 -44 -24 -53 -10 -10 16 -57 12 -77 -7 -25 -22 -23 -68 4 -93
25 -23 40 -25 68 -8 16 10 25 10 47 -4 37 -22 35 -37 -6 -65 -70 -47 -159 -20
-200 62 -23 43 -24 50 -12 93 24 90 108 142 184 113z m297 -14 c35 -26 60 -62
66 -94 24 -130 -94 -224 -206 -164 -40 21 -80 83 -80 124 0 30 20 81 44 110
33 42 134 55 176 24z"/>
<path d="M887 1727 c-5 -13 34 -88 163 -312 35 -60 119 -208 188 -329 69 -120
132 -220 139 -223 19 -7 37 10 65 65 14 26 120 213 236 415 120 209 209 374
205 382 -7 21 -988 22 -996 2z m639 -278 c22 -18 16 -56 -13 -86 -18 -17 -22
-25 -10 -20 39 15 3 -80 -41 -109 -32 -21 -89 -22 -123 -3 -13 8 -40 14 -59
14 -42 0 -50 22 -22 62 10 16 22 40 25 54 10 39 45 78 79 86 52 14 149 15 164
2z m27 -255 c8 -8 -35 -74 -48 -74 -6 0 -50 -16 -99 -35 -49 -19 -94 -35 -100
-35 -6 0 -17 10 -25 21 -16 27 -13 29 89 64 41 14 95 35 120 45 50 22 54 22
63 14z"/>
</g>
</svg>
